HIERARCHY
ROOT joint_Root
{
	OFFSET 0.0 0.0 0.0
	CHANNELS 6 Xposition Yposition Zposition Zrotation Xrotation Yrotation 
	JOINT Hips
	{
		OFFSET -0.726466 93.3139 -2.00062
		CHANNELS 6 Xposition Yposition Zposition Zrotation Xrotation Yrotation 
		JOINT Spine
		{
			OFFSET 15.7357 0.0 0.0
			CHANNELS 6 Xposition Yposition Zposition Zrotation Xrotation Yrotation 
			JOINT Chest
			{
				OFFSET 8.98455 -0.406207 0.0
				CHANNELS 6 Xposition Yposition Zposition Zrotation Xrotation Yrotation 
				JOINT Neck
				{
					OFFSET 16.3773 0.0 0.0
					CHANNELS 6 Xposition Yposition Zposition Zrotation Xrotation Yrotation 
					JOINT Head
					{
						OFFSET 6.45672 0.0 0.0
						CHANNELS 6 Xposition Yposition Zposition Zrotation Xrotation Yrotation 
						End Site
						{
							OFFSET 0.0 0.0 0.0
						}
					}
				}
				JOINT Shoulder_L
				{
					OFFSET 12.9942 -0.242716 4.98039
					CHANNELS 6 Xposition Yposition Zposition Zrotation Xrotation Yrotation 
					JOINT UpperArm_L
					{
						OFFSET 5.34809 0.0 0.0
						CHANNELS 6 Xposition Yposition Zposition Zrotation Xrotation Yrotation 
						JOINT LowerArm_L
						{
							OFFSET 24.3286 1.87007e-05 0.0
							CHANNELS 6 Xposition Yposition Zposition Zrotation Xrotation Yrotation 
							JOINT Hand_L
							{
								OFFSET 22.2916 0.0 0.0
								CHANNELS 6 Xposition Yposition Zposition Zrotation Xrotation Yrotation 
								End Site
								{
									OFFSET 0.0 0.0 0.0
								}
							}
						}
					}
				}
				JOINT Shoulder_R
				{
					OFFSET 12.9945 -0.242716 -4.98039
					CHANNELS 6 Xposition Yposition Zposition Zrotation Xrotation Yrotation 
					JOINT UpperArm_R
					{
						OFFSET -5.34813 0.0 0.0
						CHANNELS 6 Xposition Yposition Zposition Zrotation Xrotation Yrotation 
						JOINT LowerArm_R
						{
							OFFSET -24.3289 0.000322201 0.0
							CHANNELS 6 Xposition Yposition Zposition Zrotation Xrotation Yrotation 
							JOINT Hand_R
							{
								OFFSET -22.2915 -0.000108084 0.0
								CHANNELS 6 Xposition Yposition Zposition Zrotation Xrotation Yrotation 
								End Site
								{
									OFFSET 0.0 0.0 0.0
								}
							}
						}
					}
				}
			}
		}
		JOINT UpperLeg_L
		{
			OFFSET -2.19248 -6.46944 0.0
			CHANNELS 6 Xposition Yposition Zposition Zrotation Xrotation Yrotation 
			JOINT LowerLeg_L
			{
				OFFSET 39.0811 0.0 -1.23785e-05
				CHANNELS 6 Xposition Yposition Zposition Zrotation Xrotation Yrotation 
				JOINT Foot_L
				{
					OFFSET 40.9854 0.0 -1.26872e-05
					CHANNELS 6 Xposition Yposition Zposition Zrotation Xrotation Yrotation 
					JOINT Toes_L
					{
						OFFSET 11.7543 0.0 0.0
						CHANNELS 6 Xposition Yposition Zposition Zrotation Xrotation Yrotation 
						End Site
						{
							OFFSET 0.0 0.0 0.0
						}
					}
				}
			}
		}
		JOINT UpperLeg_R
		{
			OFFSET -2.19251 6.46944 0.0
			CHANNELS 6 Xposition Yposition Zposition Zrotation Xrotation Yrotation 
			JOINT LowerLeg_R
			{
				OFFSET -39.0811 -0.00228153 -0.0401928
				CHANNELS 6 Xposition Yposition Zposition Zrotation Xrotation Yrotation 
				JOINT Foot_R
				{
					OFFSET -40.9854 0.0 0.0
					CHANNELS 6 Xposition Yposition Zposition Zrotation Xrotation Yrotation 
					JOINT Toes_R
					{
						OFFSET -11.7543 0.0 0.0
						CHANNELS 6 Xposition Yposition Zposition Zrotation Xrotation Yrotation 
						End Site
						{
							OFFSET 0.0 0.0 0.0
						}
					}
				}
			}
		}
	}
}
MOTION
Frames:	6
Frame Time:	0.0333333
0.000000 0.000000 0.000000 0.000000 0.000000 -0.000000 3.728830 81.587100 -429.277000 86.586500 -10.157700 -7.821030 15.735700 0.000005 -0.000001 107.758000 79.375800 -106.072000 8.984550 -0.406207 -0.000000 12.433300 6.488520 2.665670 16.377300 -0.000001 -0.000001 2.822110 0.364427 -0.162658 6.456720 -0.000001 -0.000000 -5.121280 -1.986160 -0.713066 12.994200 -0.242716 4.980390 -87.676300 -4.726780 -63.782900 5.348090 -0.000007 -0.000001 -67.747900 29.843800 12.609100 24.328600 0.000019 0.000005 8.434340 6.998950 -50.588800 22.291600 -0.000001 0.000005 -6.655220 5.631650 -13.460100 12.994500 -0.242716 -4.980390 89.539400 1.186460 -68.782600 -5.348130 -0.000001 -0.000004 -40.376300 17.926000 -45.986700 -24.328900 0.000322 -0.000009 -0.740011 -0.231526 -72.579300 -22.291500 -0.000108 -0.000004 -4.543070 5.511320 -6.996190 -2.192480 -6.469440 -0.000000 179.179000 -9.804250 -45.263200 39.081100 -0.000007 -0.000012 -0.336607 -0.132352 111.466000 40.985400 -0.000006 -0.000013 11.015600 -8.253180 -53.240700 11.754300 -0.000000 0.000003 -0.006763 -0.077623 -19.736600 -2.192510 6.469440 -0.000001 -175.649000 9.797280 162.962000 -39.081100 -0.002282 -0.040193 0.057374 -0.036547 55.984400 -40.985400 0.000008 0.000006 5.392620 -0.949203 -90.739100 -11.754300 -0.000006 -0.000006 -0.009403 -0.099122 -20.611000
0.000000 0.000000 0.000000 0.000000 0.000000 -0.000000 4.375270 83.873000 -422.173000 89.264600 -12.810500 -8.605270 15.735700 0.000005 -0.000001 114.466000 79.434600 -114.285000 8.984550 -0.406207 -0.000000 11.550100 8.686320 -0.517646 16.377300 -0.000001 -0.000001 3.504260 0.097996 0.095129 6.456720 -0.000001 -0.000000 -5.133690 -3.895010 0.068554 12.994200 -0.242716 4.980390 -87.275900 -5.162630 -62.131900 5.348090 -0.000007 -0.000001 -66.053800 27.967200 16.884700 24.328600 0.000019 0.000005 5.904710 4.563460 -52.429000 22.291600 -0.000001 0.000005 -5.792230 5.630040 -13.339000 12.994500 -0.242716 -4.980390 90.209800 -0.538076 -68.694600 -5.348130 -0.000001 -0.000004 -39.236000 14.773400 -49.514900 -24.328900 0.000322 -0.000009 -1.966310 -0.427154 -77.736400 -22.291500 -0.000108 -0.000004 -4.593930 5.490300 -6.147340 -2.192480 -6.469440 -0.000000 174.674000 -9.922030 -50.666500 39.081100 -0.000007 -0.000012 -0.194057 -0.045919 103.316000 40.985400 -0.000006 -0.000013 9.665780 -8.284230 -58.428000 11.754300 -0.000000 0.000003 -0.005774 -0.068779 -19.375800 -2.192510 6.469440 -0.000001 178.476000 9.588980 170.874000 -39.081100 -0.002282 -0.040193 0.020308 -0.016407 46.095400 -40.985400 0.000008 0.000006 5.012420 2.821650 -85.687400 -11.754300 -0.000006 -0.000006 -0.025657 -0.196823 -24.626900
0.000000 0.000000 0.000000 0.000000 0.000000 -0.000000 4.892400 86.924100 -414.926000 91.198500 -13.967100 -9.625280 15.735700 0.000005 -0.000001 118.264000 79.602200 -119.326000 8.984550 -0.406207 -0.000000 10.756400 9.750510 -3.045500 16.377300 -0.000001 -0.000001 4.138750 0.169510 0.019237 6.456720 -0.000001 -0.000000 -5.069750 -4.887380 0.610028 12.994200 -0.242716 4.980390 -86.439700 -6.409230 -60.865600 5.348090 -0.000007 -0.000001 -65.900100 25.569900 19.350200 24.328600 0.000019 0.000005 6.091310 4.432340 -54.088300 22.291600 -0.000001 0.000005 -6.167250 5.619310 -12.572800 12.994500 -0.242716 -4.980390 90.654200 -1.666100 -68.558800 -5.348130 -0.000001 -0.000004 -39.679800 13.541600 -50.657400 -24.328900 0.000322 -0.000009 -2.163320 -0.330313 -81.312500 -22.291500 -0.000108 -0.000004 -4.550760 5.479330 -5.722670 -2.192480 -6.469440 -0.000000 171.976000 -9.074360 -52.680000 39.081100 -0.000007 -0.000012 -0.056043 0.000766 89.225900 40.985400 -0.000006 -0.000013 8.668710 -9.141060 -62.222700 11.754300 -0.000000 0.000003 -0.006100 -0.071746 -19.496800 -2.192510 6.469440 -0.000001 174.017000 9.995840 177.171000 -39.081100 -0.002282 -0.040193 0.015935 -0.017076 36.526800 -40.985400 0.000008 0.000006 4.546680 5.975040 -72.563500 -11.754300 -0.000006 -0.000006 -0.098023 -0.439625 -34.911900
0.000000 0.000000 0.000000 0.000000 0.000000 -0.000000 5.232980 90.039400 -407.885000 92.020600 -14.837300 -11.230800 15.735700 0.000005 -0.000001 121.227000 79.905500 -123.159000 8.984550 -0.406207 -0.000000 9.795920 10.370500 -4.759990 16.377300 -0.000001 -0.000001 4.865820 0.452547 -0.466972 6.456720 -0.000001 -0.000000 -5.513690 -5.268040 1.341400 12.994200 -0.242716 4.980390 -85.841400 -7.353740 -60.400900 5.348090 -0.000007 -0.000001 -66.902300 24.340000 21.324200 24.328600 0.000019 0.000005 6.099290 4.175710 -55.728100 22.291600 -0.000001 0.000005 -5.689650 5.612720 -12.134200 12.994500 -0.242716 -4.980390 90.876700 -2.240240 -68.620400 -5.348130 -0.000001 -0.000004 -40.682400 14.135100 -50.481500 -24.328900 0.000322 -0.000009 -2.339800 -0.280498 -83.158000 -22.291500 -0.000108 -0.000004 -3.599690 5.480860 -5.781080 -2.192480 -6.469440 -0.000000 170.873000 -8.873880 -51.673600 39.081100 -0.000007 -0.000012 0.024361 -0.008900 69.917800 40.985400 -0.000006 -0.000013 8.214100 -9.610890 -65.167800 11.754300 -0.000000 0.000003 -0.005967 -0.070543 -19.447800 -2.192510 6.469440 -0.000001 170.973000 12.011500 -179.894000 -39.081100 -0.002282 -0.040193 0.041872 -0.067241 29.839000 -40.985400 0.000008 0.000006 3.936590 9.897300 -54.562200 -11.754300 -0.000006 -0.000006 -0.208266 -0.658660 -44.866000
0.000000 0.000000 0.000000 0.000000 0.000000 -0.000000 5.109200 92.087700 -400.549000 90.681900 -14.588200 -11.156500 15.735700 0.000005 -0.000001 121.547000 79.696500 -123.465000 8.984550 -0.406207 -0.000000 10.108200 10.675200 -4.788470 16.377300 -0.000001 -0.000001 5.815810 0.726151 -1.047090 6.456720 -0.000001 -0.000000 -6.510970 -5.519660 2.379310 12.994200 -0.242716 4.980390 -85.432400 -8.123530 -60.518000 5.348090 -0.000007 -0.000001 -68.510200 23.232700 21.983800 24.328600 0.000019 0.000005 6.264230 4.065370 -57.143200 22.291600 -0.000001 0.000005 -5.155630 5.609530 -11.929000 12.994500 -0.242716 -4.980390 90.891800 -2.327610 -69.029400 -5.348130 -0.000001 -0.000004 -42.516500 15.842300 -48.861000 -24.328900 0.000322 -0.000009 -2.962990 -0.342648 -83.401900 -22.291500 -0.000108 -0.000004 -1.959220 5.489470 -6.114440 -2.192480 -6.469440 -0.000000 172.878000 -9.270580 -45.852100 39.081100 -0.000007 -0.000012 0.037801 -0.033197 48.707500 40.985400 -0.000006 -0.000013 6.459620 -6.766670 -67.636800 11.754300 -0.000000 0.000003 -0.006039 -0.071200 -19.474600 -2.192510 6.469440 -0.000001 169.418000 14.806800 -176.219000 -39.081100 -0.002282 -0.040193 0.088608 -0.173410 26.192100 -40.985400 0.000008 0.000006 -0.816694 13.445700 -38.552000 -11.754300 -0.000006 -0.000006 -0.110982 -0.471023 -36.289000
0.000000 0.000000 0.000000 0.000000 0.000000 -0.000000 4.462520 92.478400 -392.522000 88.352600 -13.930300 -9.603210 15.735700 0.000005 -0.000001 121.030000 79.172400 -122.506000 8.984550 -0.406207 -0.000000 11.086400 11.037800 -4.031840 16.377300 -0.000001 -0.000001 6.512710 0.565694 -1.068840 6.456720 -0.000001 -0.000000 -6.714240 -5.483630 3.325790 12.994200 -0.242716 4.980390 -85.260700 -8.626030 -61.068000 5.348090 -0.000007 -0.000001 -69.549400 21.905500 21.317800 24.328600 0.000019 0.000005 7.334880 4.503460 -58.616900 22.291600 -0.000001 0.000005 -4.443070 5.604470 -11.612800 12.994500 -0.242716 -4.980390 90.828600 -2.206790 -69.414600 -5.348130 -0.000001 -0.000004 -45.386900 18.561000 -45.350200 -24.328900 0.000322 -0.000009 -2.699110 -0.357408 -82.453400 -22.291500 -0.000108 -0.000004 -0.216233 5.505610 -6.760310 -2.192480 -6.469440 -0.000000 176.067000 -10.674000 -38.258900 39.081100 -0.000007 -0.000012 0.015746 -0.026195 31.008800 40.985400 -0.000006 -0.000013 2.911160 -3.655710 -68.802500 11.754300 -0.000000 0.000003 -0.006909 -0.078892 -19.788400 -2.192510 6.469440 -0.000001 169.425000 14.237600 -171.776000 -39.081100 -0.002282 -0.040193 0.117925 -0.231316 26.358200 -40.985400 0.000008 0.000006 -5.823970 9.711820 -29.537100 -11.754300 -0.000006 -0.000006 -0.021070 -0.173143 -23.649100
